<?xml version="1.0" encoding="UTF-8"?><svg id="Layer_1" xmlns="http://www.w3.org/2000/svg" viewBox="0 0 841.89 595.28"><defs><style>.cls-1,.cls-2{fill-rule:evenodd;}.cls-1,.cls-3{fill:#231f20;}.cls-2{fill:#ffcb0c;}</style></defs><path class="cls-1" d="M127.26,304.1c-10.66-13.79-23.19-20.69-37.62-20.69-11.91,0-21.94,4.39-30.09,13.79-8.15,8.15-11.91,18.81-11.91,30.72s3.76,22.56,11.28,30.71c7.52,8.78,17.55,13.16,29.46,13.16,15.67,0,28.83-6.9,39.49-21.31l.62,28.2c-12.54,8.15-25.08,12.54-38.24,12.54-18.18,0-33.23-6.27-45.76-18.18-11.91-11.91-18.18-26.95-18.18-45.13s6.27-32.61,18.81-45.14c12.54-12.54,27.58-18.18,45.13-18.18,13.79,0,26.33,3.76,36.98,11.91v27.58Z"/><path class="cls-1" d="M209.38,283.41c11.91,.62,21.32,4.39,28.84,12.54,6.9,8.14,10.66,18.8,10.66,30.71,0,12.54-3.13,23.19-10.03,31.97-7.52,8.78-16.93,13.16-29.47,13.16v19.44c15.68-.62,28.21-7.52,38.24-19.44v16.31h21.31v-120.36h-21.31v16.29c-10.66-11.9-23.2-18.8-38.24-19.43v18.81Zm-28.83,13.16c7.53-8.77,16.93-13.16,28.21-13.16h.62v-18.81h-2.51c-17.55,0-31.97,6.27-42.63,18.81-10.03,11.9-15.05,26.95-15.05,44.51s5.02,31.96,15.05,43.87c11.29,13.17,25.08,19.44,42,19.44h3.13v-19.44h0c-12.54,0-21.94-4.38-29.46-13.79-6.27-8.15-9.4-18.8-9.4-31.34s3.13-21.94,10.03-30.09Z"/><rect class="cls-3" x="304.04" y="177.47" width="20.68" height="210.63"/><rect class="cls-3" x="361.08" y="177.47" width="20.69" height="210.63"/><path class="cls-1" d="M476.43,283.41c11.91,.62,21.31,4.39,28.83,12.54,6.9,8.14,10.66,18.8,10.66,30.71,0,12.54-3.76,23.19-10.03,31.97-7.53,8.78-16.93,13.16-29.46,13.16v19.44h3.13c16.93,0,30.72-6.27,42-19.44,10.66-11.91,15.67-26.95,15.67-43.87s-5.02-31.97-15.67-44.51c-10.65-12.54-25.07-18.81-42-18.81h-3.13v18.81Zm-28.84,13.16c7.52-8.77,16.93-13.16,28.21-13.16h.63v-18.81c-14.42,.63-27.59,6.9-38.24,19.43v-106.56h-20.68v210.63h20.68l.63-16.31c8.78,11.92,21.31,18.82,37.62,19.44v-19.44h0c-12.54,0-21.94-4.38-29.47-13.79-6.27-8.77-9.4-18.8-9.4-31.34s3.13-21.94,10.03-30.09Z"/><path class="cls-1" d="M623.11,283.41c12.54,0,22.57,4.39,30.72,13.16,7.52,8.78,11.91,18.81,11.91,31.35s-4.39,22.56-11.91,30.71c-8.15,8.78-18.18,13.16-30.72,13.16v19.44c17.55,0,32.6-6.27,44.51-18.81,12.54-12.54,18.8-26.95,18.8-44.5s-6.26-32.61-18.18-44.51c-12.54-12.54-27.58-18.81-45.13-18.81v18.81Zm-30.09,13.16c8.15-8.77,18.18-13.16,30.09-13.16v-18.81c-16.92,0-31.97,6.27-44.51,18.18-11.91,12.53-18.18,27.58-18.18,45.14s6.26,32.59,18.18,44.5c12.54,12.54,27.58,18.81,44.51,18.81v-19.44c-11.91,0-21.94-4.38-30.09-12.53-8.15-8.78-11.91-18.81-11.91-31.34s3.76-23.2,11.91-31.35Z"/><polygon class="cls-1" points="695.82 267.74 720.9 267.74 752.24 308.48 783.59 267.74 809.29 267.74 765.41 324.15 815.55 388.1 789.86 388.1 752.24 339.2 714.63 388.1 688.3 388.1 739.08 324.15 695.82 267.74"/><path class="cls-2" d="M612.45,98.48l-70.83,71.46,21.31,20.69s44.51-45.14,60.18-60.18c15.04,15.04,60.18,60.18,60.18,60.18l20.69-20.69-80.87-82.12-10.66,10.66Z"/></svg>