<svg xmlns="http://www.w3.org/2000/svg" viewBox="0 0 211 53"><path d="M24.31,40H16.92v9.66H9.15V24.85h7.77v8.92h7.39V24.85h7.77V49.63H24.31Z" style="fill:#96c"/><path d="M40.69,24.85h7.73v14c0,2.14.84,3.71,3.19,3.71S54.9,41,54.9,38.81v-14h7.73v14c0,7.32-5,11.06-11.2,11.06S40.69,46.13,40.69,38.81Z" style="fill:#96c"/><path d="M94.45,37.17c0,7.07-5,12.46-12.88,12.46H71.24V24.85H81.57C89.48,24.85,94.45,30,94.45,37.17ZM80.87,42.7c3.43,0,5.7-1.93,5.7-5.53s-2.27-5.53-5.7-5.53H79V42.7Z" style="fill:#96c"/><path d="M125.71,37.17c0,7.07-5,12.46-12.89,12.46H102.5V24.85h10.32C120.73,24.85,125.71,30,125.71,37.17ZM112.12,42.7c3.43,0,5.71-1.93,5.71-5.53s-2.28-5.53-5.71-5.53h-1.85V42.7Z" style="fill:#96c"/><path d="M141.52,24.85v18.9H149v5.88H133.75V24.85Z" style="fill:#96c"/><path d="M173.23,31h-8.75v3.05h7.7v5.84h-7.7v3.5h8.75v6.2H156.71V24.85h16.52Z" style="fill:#96c"/><path d="M27.39,37.63H20v9.66H12.23V22.5H20v8.93h7.39V22.5h7.77V47.29H27.39Z" style="fill:#39c"/><path d="M43.77,22.5H51.5v14c0,2.14.84,3.71,3.19,3.71S58,38.61,58,36.47v-14h7.73v14c0,7.32-5,11.06-11.2,11.06S43.77,43.79,43.77,36.47Z" style="fill:#39c"/><path d="M97.53,34.83c0,7.07-5,12.46-12.88,12.46H74.32V22.5H84.65C92.56,22.5,97.53,27.69,97.53,34.83ZM84,40.36c3.43,0,5.7-1.93,5.7-5.53S87.38,29.3,84,29.3H82.09V40.36Z" style="fill:#39c"/><path d="M128.78,34.83c0,7.07-5,12.46-12.88,12.46H105.58V22.5H115.9C123.81,22.5,128.78,27.69,128.78,34.83ZM115.2,40.36c3.43,0,5.71-1.93,5.71-5.53s-2.28-5.53-5.71-5.53h-1.85V40.36Z" style="fill:#39c"/><path d="M144.6,22.5V41.41h7.49v5.88H136.83V22.5Z" style="fill:#39c"/><path d="M176.31,28.7h-8.75v3.05h7.7v5.84h-7.7v3.5h8.75v6.2H159.79V22.5h16.52Z" style="fill:#39c"/><path d="M183.4,33.1c2.57-2.12,5.31-4.23,5.31-6.27,0-.88-.4-1.44-1.26-1.44s-1.34.66-1.34,1.81h-2.74a3.94,3.94,0,0,1,4.2-4.2c2.75,0,4,1.61,4,3.65,0,2.65-2.37,4.78-4.3,6.25h4.48v2.31H183.4Z" style="fill:#fc0"/><path d="M197.64,23c3.45,0,4.66,2.58,4.66,6.13s-1.21,6.18-4.66,6.18S193,32.74,193,29.15,194.19,23,197.64,23Zm0,2.65c-1.68,0-1.88,1.63-1.88,3.48s.2,3.52,1.88,3.52,1.87-1.59,1.87-3.52S199.31,25.67,197.64,25.67Z" style="fill:#fc0"/><path d="M183.3,47.86c2.58-2.12,5.31-4.22,5.31-6.26,0-.88-.4-1.45-1.26-1.45S186,40.82,186,42h-2.74a3.94,3.94,0,0,1,4.2-4.2c2.75,0,4,1.61,4,3.65,0,2.66-2.37,4.78-4.3,6.26h4.48V50H183.3Z" style="fill:#fc0"/><path d="M197.11,37.75c2.55,0,3.93,1.46,3.93,3.28a2.75,2.75,0,0,1-1.82,2.72v.07a2.83,2.83,0,0,1,2,2.92c0,2-1.46,3.5-4,3.5s-4.35-1.2-4.43-3.93h2.75a1.45,1.45,0,0,0,1.58,1.57,1.26,1.26,0,0,0,1.36-1.36c0-1.08-.65-1.51-2.13-1.51h-.53v-2.3h.53c1,0,1.9-.24,1.9-1.33A1.15,1.15,0,0,0,197,40.12a1.26,1.26,0,0,0-1.29,1.33H193C193.08,39.06,194.64,37.75,197.11,37.75Z" style="fill:#fc0"/><path d="M39.73,2.48l-3.4,3.23,1,.93s2.14-2,2.9-2.72l2.89,2.72,1-.93L40.25,2Z" style="fill:#ffca0c;fill-rule:evenodd"/><path d="M13.88,11.32v1.27A2.32,2.32,0,0,0,12,11.68a2.1,2.1,0,0,0-1.53.61A2.2,2.2,0,0,0,9.8,14a2.18,2.18,0,0,0,.63,1.66,2.1,2.1,0,0,0,1.52.61,2.47,2.47,0,0,0,2-1v1.27a3.24,3.24,0,0,1-1.94.63,3.19,3.19,0,0,1-2.35-.91A3,3,0,0,1,8.71,14a3.14,3.14,0,0,1,.93-2.32A3.19,3.19,0,0,1,12,10.73,3.26,3.26,0,0,1,13.88,11.32Z" style="fill:#fff"/><path d="M20.23,11.75v-.87h1.06V17H20.23v-.85a2.51,2.51,0,0,1-2.09,1A2.89,2.89,0,0,1,16,16.32a3.2,3.2,0,0,1-.87-2.39A3.16,3.16,0,0,1,16,11.58a2.9,2.9,0,0,1,2.12-.85A2.48,2.48,0,0,1,20.23,11.75Zm-2-.07a1.89,1.89,0,0,0-1.42.59,2.27,2.27,0,0,0-.58,1.66,2.49,2.49,0,0,0,.54,1.66,1.82,1.82,0,0,0,1.46.64,1.8,1.8,0,0,0,1.48-.67,2.44,2.44,0,0,0,.56-1.62,2.24,2.24,0,0,0-.62-1.68A2,2,0,0,0,18.25,11.68Z" style="fill:#fff"/><path d="M23.29,6.25h1.06V17H23.29Z" style="fill:#fff"/><path d="M26.35,6.25h1.07V17H26.35Z" style="fill:#fff"/><path d="M30.48,16.14V17H29.42V6.25h1.06v5.48a2.59,2.59,0,0,1,2.09-1,2.65,2.65,0,0,1,2.17,1A3.41,3.41,0,0,1,35.55,14a3.36,3.36,0,0,1-.8,2.26,2.64,2.64,0,0,1-2.13.94A2.55,2.55,0,0,1,30.48,16.14Zm2,.09a1.77,1.77,0,0,0,1.44-.66,2.45,2.45,0,0,0,.55-1.6,2.3,2.3,0,0,0-.61-1.68,1.9,1.9,0,0,0-1.4-.61,1.93,1.93,0,0,0-1.41.61A2.28,2.28,0,0,0,30.42,14,2.37,2.37,0,0,0,31,15.57,1.86,1.86,0,0,0,32.47,16.23Z" style="fill:#fff"/><path d="M42.34,16.26a3.13,3.13,0,0,1-2.32.91,3.17,3.17,0,0,1-2.32-.91,3.13,3.13,0,0,1-.92-2.3,3.12,3.12,0,0,1,.92-2.31A3.17,3.17,0,0,1,40,10.73a3.14,3.14,0,0,1,2.32.92A3.09,3.09,0,0,1,43.27,14,3.1,3.1,0,0,1,42.34,16.26Zm-.79-4a2.14,2.14,0,0,0-1.53-.6,2.1,2.1,0,0,0-1.52.61A2.2,2.2,0,0,0,37.87,14a2.15,2.15,0,0,0,.64,1.66,2.19,2.19,0,0,0,3,0A2.18,2.18,0,0,0,42.18,14,2.21,2.21,0,0,0,41.55,12.28Z" style="fill:#fff"/><path d="M44,17l2.61-3.27-2.23-2.84h1.3L47.26,13l1.6-2.08h1.3l-2.24,2.86L50.45,17H49.16L47.23,14.5,45.3,17Z" style="fill:#fff"/></svg>